#define bullet_width  9
#define bullet_height 9
static unsigned char bullet_bits[] = {
 0x00,0xfe,0x00,0xfe,0x20,0xfe,0x60,0xfe,0xfe,0xfe,0x60,0xfe,
 0x20,0xfe,0x00,0xfe,0x00,0xfe};
