#define iconify_width  10
#define iconify_height 10
static unsigned char iconify_bits[] = {
 0x78,0xfc,0xfe,0xfd,0x32,0xfd,0x87,0xff,0xcf,0xff,0xcf,0xff,
 0x87,0xff,0x32,0xfd,0xfe,0xfd,0x78,0xfc};
