#define iconify_width  10
#define iconify_height 10
static unsigned char iconify_bits[] = {
 0x78,0xfc,0xfe,0xfd,0x0e,0xfd,0x1f,0xff,0x3b,0xff,0x73,0xff,
 0xe3,0xff,0xc2,0xfd,0xfe,0xfd,0x78,0xfc};
